2.8Hzhigh3min_grf.mot
version=1
nRows=12
nColumns 19
inDegrees=yes
endheader
time	1_ground_force_vx	1_ground_force_vy	1_ground_force_vz	1_ground_force_px	1_ground_force_py	1_ground_force_pz	1_ground_torque_x	1_ground_torque_y	1_ground_torque_z	2_ground_force_vx	2_ground_force_vy	2_ground_force_vz	2_ground_force_px	2_ground_force_py	2_ground_force_pz	2_ground_torque_x	2_ground_torque_y	2_ground_torque_z
            0.005000	            2.160783	          403.534700	          -21.524746	           -0.247302	            0.006443	           -0.457150	           -0.005905	           -1.102848	            0.058826	          -17.070562	          566.283149	           30.841365	           -0.241477	            0.005587	           -0.690737	           -0.048217	            1.599501	            0.087113
            0.005500	            1.469578	          410.568891	          -22.410012	           -0.247575	            0.006445	           -0.457618	           -0.003315	           -0.926082	            0.050548	          -17.048330	          573.275843	           32.321085	           -0.241543	            0.005588	           -0.691076	           -0.050411	            1.695155	            0.095572
            0.006000	            0.044440	          420.667229	          -23.234462	           -0.247343	            0.006440	           -0.456585	           -0.000069	           -0.653056	            0.036070	          -17.163695	          579.350155	           32.952873	           -0.241457	            0.005588	           -0.690922	           -0.053674	            1.811733	            0.103050
            0.006500	           -1.608800	          427.159424	          -23.890378	           -0.247419	            0.006442	           -0.457058	            0.002105	           -0.559013	            0.031265	          -17.000016	          585.978467	           33.445728	           -0.241619	            0.005587	           -0.690968	           -0.055057	            1.897777	            0.108319
            0.007000	           -3.170306	          434.011971	          -24.499120	           -0.247390	            0.006445	           -0.457730	            0.005867	           -0.803231	            0.045341	          -16.413195	          592.238803	           34.312515	           -0.241783	            0.005587	           -0.691143	           -0.054205	            1.955875	            0.113317
            0.007500	           -4.181797	          442.666888	          -25.009785	           -0.247251	            0.006444	           -0.457501	            0.009998	           -1.058384	            0.059797	          -15.877957	          599.788563	           34.996209	           -0.241838	            0.005589	           -0.691580	           -0.047533	            1.795555	            0.104766
            0.008000	           -5.055173	          450.599982	          -25.340460	           -0.247294	            0.006444	           -0.457460	            0.014818	           -1.320858	            0.074281	          -14.866890	          605.314239	           35.719404	           -0.242059	            0.005587	           -0.691255	           -0.042811	            1.743067	            0.102858
            0.008500	           -5.562535	          458.173992	          -25.994583	           -0.247314	            0.006444	           -0.457537	            0.015475	           -1.274680	            0.072319	          -14.189047	          612.311522	           36.541851	           -0.242012	            0.005588	           -0.691560	           -0.040692	            1.756026	            0.104797
            0.009000	           -6.345105	          467.189877	          -26.595984	           -0.247209	            0.006443	           -0.457187	            0.014073	           -1.036212	            0.058989	          -13.647123	          618.019419	           37.312830	           -0.242028	            0.005588	           -0.691475	           -0.041868	            1.896033	            0.114473
            0.009500	           -7.219292	          474.583717	          -27.295825	           -0.247302	            0.006443	           -0.457199	            0.009811	           -0.644927	            0.037093	          -13.109727	          625.015479	           38.369978	           -0.242324	            0.005587	           -0.691684	           -0.042168	            2.010407	            0.123420
            0.010000	           -8.048323	          483.240242	          -28.173793	           -0.247506	            0.006441	           -0.456845	            0.009311	           -0.559039	            0.032593	          -12.099242	          630.724565	           39.281542	           -0.242358	            0.005587	           -0.691565	           -0.039211	            2.044045	            0.127303
            0.010500	           -9.381949	          491.176393	          -29.237025	           -0.247388	            0.006442	           -0.456919	            0.014889	           -0.779473	            0.046398	          -11.417412	          636.617004	           40.100047	           -0.242593	            0.005586	           -0.691578	           -0.036766	            2.050004	            0.129128
